<?xml version="1.0" encoding="iso-8859-1"?>
<!-- Generator: Adobe Illustrator 15.0.0, SVG Export Plug-In . SVG Version: 6.00 Build 0)  -->
<!DOCTYPE svg PUBLIC "-//W3C//DTD SVG 1.0//EN" "http://www.w3.org/TR/2001/REC-SVG-20010904/DTD/svg10.dtd">
<svg version="1.0" xmlns="http://www.w3.org/2000/svg" xmlns:xlink="http://www.w3.org/1999/xlink" x="0px" y="0px" width="100%"
	 height="100%" viewBox="0 0 40 40" xml:space="preserve">
<g id="Ebene_1">
	<path class="line" style="fill:none;stroke-miterlimit:10;" d="M10.5,12v26c0,0,0,1.515,1.5,1.5
		c3.818-0.037,11.622-0.006,16,0c1.5,0.002,1.5-1.5,1.5-1.5V12"/>
	<line class="line" style="fill:none;stroke-miterlimit:10;" x1="16.5" y1="16" x2="16.5" y2="35"/>
	<line class="line" style="fill:none;stroke-miterlimit:10;" x1="23.5" y1="16" x2="23.5" y2="35"/>
</g>
<g id="Ebene_2" class="lid">
	<line class="line" style="fill:none;stroke-miterlimit:10;" x1="8" y1="11.5" x2="32" y2="11.5"/>
	<path class="line" style="fill:none;stroke-miterlimit:10;" d="M15.5,12V9c0,0,0-1.5,1.5-1.5c2.085,0,3.764,0,6,0
		c1.5,0,1.5,1.391,1.5,1.391V12"/>
</g>
</svg>
